<?xml version="1.0" encoding="UTF-8"?>
<svg width="1024px" height="473px" viewBox="0 0 1024 473" version="1.1" xmlns="http://www.w3.org/2000/svg" xmlns:xlink="http://www.w3.org/1999/xlink">
    <!-- Generator: Sketch 51.3 (57544) - http://www.bohemiancoding.com/sketch -->
    <title>Topd</title>
    <desc>Created with Sketch.</desc>
    <defs>
        <linearGradient x1="50%" y1="7.30220376%" x2="50%" y2="100%" id="linearGradient-1">
            <stop stop-color="#FFFFFF" offset="0%"></stop>
            <stop stop-color="#DDF9F4" stop-opacity="0" offset="100%"></stop>
            <stop stop-color="#8DC3B9" offset="100%"></stop>
        </linearGradient>
        <linearGradient x1="50%" y1="0%" x2="50%" y2="100%" id="linearGradient-2">
            <stop stop-color="#AAC96B" offset="0%"></stop>
            <stop stop-color="#F7FBEF" offset="100%"></stop>
        </linearGradient>
        <linearGradient x1="50%" y1="0%" x2="50%" y2="100%" id="linearGradient-3">
            <stop stop-color="#6D9826" offset="0%"></stop>
            <stop stop-color="#B4E183" offset="100%"></stop>
        </linearGradient>
        <linearGradient x1="50%" y1="0%" x2="50%" y2="100%" id="linearGradient-4">
            <stop stop-color="#FFFFFF" offset="0%"></stop>
            <stop stop-color="#B5D892" offset="100%"></stop>
        </linearGradient>
        <linearGradient x1="50%" y1="0%" x2="50%" y2="100%" id="linearGradient-5">
            <stop stop-color="#99C149" offset="0%"></stop>
            <stop stop-color="#EDF5D6" offset="100%"></stop>
        </linearGradient>
        <linearGradient x1="50%" y1="0%" x2="50%" y2="100%" id="linearGradient-6">
            <stop stop-color="#EBFCF9" offset="0%"></stop>
            <stop stop-color="#C0DFD9" offset="100%"></stop>
        </linearGradient>
        <linearGradient x1="50%" y1="-52.2715336%" x2="50%" y2="100%" id="linearGradient-7">
            <stop stop-color="#82AC2F" offset="0%"></stop>
            <stop stop-color="#EAF5CB" offset="100%"></stop>
        </linearGradient>
        <linearGradient x1="50%" y1="-52.2715336%" x2="50%" y2="100%" id="linearGradient-8">
            <stop stop-color="#9ABE51" offset="0%"></stop>
            <stop stop-color="#EEF2E5" offset="100%"></stop>
        </linearGradient>
        <linearGradient x1="19.4332334%" y1="-95.5897177%" x2="50%" y2="100%" id="linearGradient-9">
            <stop stop-color="#EEEEEE" offset="0%"></stop>
            <stop stop-color="#D8D8D8" offset="100%"></stop>
        </linearGradient>
        <linearGradient x1="50%" y1="0%" x2="50%" y2="100%" id="linearGradient-10">
            <stop stop-color="#AFCF70" offset="0%"></stop>
            <stop stop-color="#F3FBDC" offset="100%"></stop>
        </linearGradient>
        <radialGradient cx="55.0397182%" cy="15.0703642%" fx="55.0397182%" fy="15.0703642%" r="166.346154%" gradientTransform="translate(0.550397,0.150704),scale(1.000000,0.601156),rotate(90.000000),translate(-0.550397,-0.150704)" id="radialGradient-11">
            <stop stop-color="#9FC550" offset="0%"></stop>
            <stop stop-color="#E6F3CC" offset="100%"></stop>
        </radialGradient>
        <linearGradient x1="50%" y1="0%" x2="50%" y2="100%" id="linearGradient-12">
            <stop stop-color="#A7CA65" offset="0%"></stop>
            <stop stop-color="#F6FFED" offset="100%"></stop>
        </linearGradient>
    </defs>
    <g id="Page-1" stroke="none" stroke-width="1" fill="none" fill-rule="evenodd">
        <g id="Desktop" transform="translate(0.000000, -17.000000)">
            <g id="Topd" transform="translate(-238.000000, 17.000000)">
                <rect id="Rectangle-2" fill="url(#linearGradient-1)" x="238" y="0" width="1024" height="467"></rect>
                <g id="Mountains" transform="translate(238.000000, 66.000000)">
                    <g id="back">
                        <polygon id="Path-2" fill="url(#linearGradient-2)" points="0 301.582873 1024 301.582873 1024 62.1519337 874 0.417127072 810.432742 20.7503517 681 62.1519337 583 162.262431 512 216.906077 337.5 262.372928 215.5 234.425414 172.546858 248.43797 98.5 191.944852 61 180.616022 0 216.906077"></polygon>
                        <polygon id="Path-11" fill-opacity="0.2" fill="url(#linearGradient-3)" style="mix-blend-mode: screen;" points="1028 113.875691 971 171.022099 861.5 153.91989 951.5 151"></polygon>
                        <polygon id="Path-11" fill-opacity="0.05" fill="url(#linearGradient-3)" style="mix-blend-mode: multiply;" points="172.5 248.607735 215.5 234.425414 209 242.767956"></polygon>
                        <polygon id="Path-11" fill-opacity="0.3" fill="url(#linearGradient-3)" style="mix-blend-mode: screen;" points="760.75 128.475138 851.5 113.961763 780 156.422652 753 163.930939 670 113.961763"></polygon>
                        <polygon id="Path-11" fill-opacity="0.2" fill="url(#linearGradient-3)" style="mix-blend-mode: screen;" points="874 0.417127072 835 50.4723757 681 62.1519337"></polygon>
                        <polygon id="Path-13" fill-opacity="0.2" fill="url(#linearGradient-4)" style="mix-blend-mode: multiply;" points="835 50.8895028 903 86.7624309 1025 62.9861878 874 0.417127072"></polygon>
                        <polygon id="Path-11" fill-opacity="0.09" fill="url(#linearGradient-3)" style="mix-blend-mode: multiply;" points="61 180.616022 99 192.29558 85 196.049724"></polygon>
                        <polygon id="Path-11" fill-opacity="0.05" fill="url(#linearGradient-3)" style="mix-blend-mode: multiply;" points="64.5 223.58011 85 222.328729 100.5 216.906077 93 235.676796"></polygon>
                        <polygon id="Path-11" fill-opacity="0.3" fill="url(#linearGradient-3)" style="mix-blend-mode: screen;" points="635 180.702094 711.5 180.702094 640 223.162983 613 230.671271 512 216.906077 583 161.845304"></polygon>
                    </g>
                    <g id="front" transform="translate(0.000000, 116.000000)">
                        <polygon id="Path-3" fill="url(#linearGradient-5)" points="0 186 1028 186 917.314233 78.12 751.523105 107.88 653.18854 162.285 544.402957 148.335 405.214418 162.285 285.977819 107.88 170.54159 148.335 81.232902 107.88 0 0"></polygon>
                        <polygon id="Path-11" fill-opacity="0.3" fill="url(#linearGradient-3)" style="mix-blend-mode: screen;" transform="translate(952.000000, 128.448430) scale(-1, -1) translate(-952.000000, -128.448430) " points="955.356164 78.4035874 987 178.493274 917 111.62838"></polygon>
                        <polygon id="Path-11" fill-opacity="0.3" fill="url(#linearGradient-3)" style="mix-blend-mode: screen;" points="19 25.8565022 81 108.430493 39.8244275 80.9058296"></polygon>
                        <polygon id="Path-11" fill-opacity="0.09" fill="url(#linearGradient-3)" style="mix-blend-mode: multiply;" points="19 25.8565022 40 80.9058296 31.4090909 101.757848 19 95.0852018"></polygon>
                        <polygon id="Path-11" fill-opacity="0.3" fill="url(#linearGradient-3)" style="mix-blend-mode: screen;" points="331.786164 128.69033 338 162.64574 262 148.776723 285.421384 108.430493"></polygon>
                    </g>
                </g>
                <g id="Water" transform="translate(0.000000, 357.000000)">
                    <polygon id="Path-4" fill="url(#linearGradient-6)" points="0 0 1522 0 1522 116 0 116"></polygon>
                    <path d="M335,35 L664.307018,48.5 L986,35 C888.921053,53 781.690058,62 664.307018,62 C546.923977,62 437.154971,53 335,35 Z" id="Path-8" fill-opacity="0.4" fill="#EBFCF9"></path>
                    <path d="M374,2 L717.47076,15.5 L1053,2 C951.745614,20 839.902534,29 717.47076,29 C595.038986,29 480.548733,20 374,2 Z" id="Path-8" fill-opacity="0.4" fill="#EBFCF9"></path>
                    <path d="M403,72 L746.47076,85.5 L1082,72 C980.745614,90 868.902534,99 746.47076,99 C624.038986,99 509.548733,90 403,72 Z" id="Path-8" fill-opacity="0.4" fill="#EBFCF9"></path>
                </g>
                <polygon id="Path-6" fill="url(#linearGradient-7)" points="421.019231 444.236486 513.486361 374 557.89148 388.047297 597.594881 423.5 642 473 446.911608 473"></polygon>
                <polygon id="Path-6" fill="url(#linearGradient-8)" points="238 306.836066 294.310501 292 383.384561 351.937705 421 411.170799 506.718487 473 238 473"></polygon>
                <g id="Road" transform="translate(421.000000, 411.000000)">
                    <path d="M0,0 L50,0 C70.0666425,7.65545262 85.8999758,15.8221193 97.5,24.5 C109.100024,33.1778807 121.766691,45.6778807 135.5,62 L53,62 C44.7695312,46.6666667 36.3209635,34.1666667 27.6542969,24.5 C18.9876302,14.8333333 9.76953125,6.66666667 0,0 Z" id="road" fill="url(#linearGradient-9)"></path>
                    <polygon id="Path-9" fill-opacity="0.8" fill="#F7EF7E" points="22 0 25.5 0 28.4478327 1.33914463 25.5 1.5"></polygon>
                    <polygon id="Path-9" fill-opacity="0.8" fill="#F7EF7E" points="30.2684109 2.26174815 35.9048969 5.13007357 33 5.5 27.307354 2.54581508"></polygon>
                    <polygon id="Path-9" fill-opacity="0.8" fill="#F7EF7E" points="37.5699511 6.21271292 44.5749483 10.3736258 41 10.3736258 34.741619 6.55761092"></polygon>
                    <polygon id="Path-9" fill-opacity="0.8" fill="#F7EF7E" points="46.8949051 12.1870667 53.5985742 17.0026012 50.5 17.0026012 43.5 12.1870667"></polygon>
                    <polygon id="Path-9" fill-opacity="0.8" fill="#F7EF7E" points="55.760619 18.8871772 63.0073454 25.6586415 59.7070967 25.8403816 52.4 19.0637393"></polygon>
                    <polygon id="Path-9" fill-opacity="0.8" fill="#F7EF7E" points="65.4444176 28.5711564 71.9047968 35.556035 68.5108286 35.4625484 62.4 28.5711564"></polygon>
                    <polygon id="Path-9" fill-opacity="0.8" fill="#F7EF7E" points="74 38.560334 79.3699141 45.4065554 76 45.4065554 71.0797072 38.560334"></polygon>
                    <path d="M81.0702934,47.9001127 C81.7536283,48.9402584 82.5291517,50.12073 83.3968638,51.4415276 C84.2645759,52.7623251 85.1322879,54.0831226 86,55.4039202 L82.7758386,55.4039202 C81.9654983,54.1489843 81.1524629,52.8898746 80.3367323,51.6265909 C79.5210017,50.3633072 78.705271,49.1000236 77.8895404,47.8367399 L81.0702934,47.9001127 Z" id="Path-9" fill-opacity="0.8" fill="#F7EF7E"></path>
                    <polygon id="Path-9" fill-opacity="0.8" fill="#F7EF7E" points="87.2338527 58.0074608 89.5 62.0028903 86.5 62.0028903 84.1971288 58"></polygon>
                    <path d="M26,0 L29,0 C43.7606514,6.2015322 56.2606514,14.384189 66.5,24.5479705 C76.7393486,34.7117519 85.9060153,47.1957618 94,62 L91,62 C82.8713449,47.326185 73.5380116,34.8421752 63,24.5479705 C52.4619884,14.2537658 40.1286551,6.07110894 26,0 Z" id="solid" fill-opacity="0.8" fill="#F7EF7E"></path>
                </g>
                <g id="front-left-shadows" transform="translate(237.000000, 292.000000)">
                    <polygon id="Path-11" fill-opacity="0.5" fill="url(#linearGradient-3)" style="mix-blend-mode: screen;" points="57 0 146.5 60 184 119 129.5 95.5 101 65.5 54 11 1 15"></polygon>
                    <polygon id="Path-11" fill-opacity="0.3" fill="url(#linearGradient-3)" style="mix-blend-mode: screen;" points="276.5 82 321 96 361 132 405.5 182 296.5 116"></polygon>
                    <polygon id="Path-12" fill-opacity="0.5" fill="#40722C" style="mix-blend-mode: screen;" opacity="0.8" points="1 15 57.5 0 54 11 64.5 23 43.5 34 1 26.5"></polygon>
                    <polygon id="Path-12" fill-opacity="0.7" fill="#40722C" style="mix-blend-mode: screen;" opacity="0.8" points="311 147.5 329 143 344 153.5 351.5 167 345 168.5 326 158"></polygon>
                    <polygon id="Path-12" fill-opacity="0.5" fill="#40722C" style="mix-blend-mode: screen;" points="120.75 85.5 146.5 60 144 73 130 95.5 91.5 89.5"></polygon>
                    <polygon id="Path-12" fill-opacity="0.5" fill="#40722C" style="mix-blend-mode: screen;" points="296 116.5 320 95 317.5 108 313 126.5 265 124.5"></polygon>
                    <polygon id="Path-12" fill-opacity="0.5" fill="#40722C" style="mix-blend-mode: screen;" transform="translate(146.500000, 157.750000) scale(-1, -1) translate(-146.500000, -157.750000) " points="119.25 170.5 123.5 135 203 135 167.5 158 128.5 180.5 90 174.5"></polygon>
                    <polygon id="Path-12" fill-opacity="0.5" fill="#40722C" style="mix-blend-mode: screen;" points="0.929418807 76.7065626 10 61.5 37 90 75 97.5 55 106.5 10 100 1.09383787 94.7610811"></polygon>
                </g>
                <g id="right-mountains" transform="translate(825.000000, 301.000000)">
                    <polygon id="Path-6" fill="url(#linearGradient-10)" transform="translate(219.000000, 86.250000) scale(-1, 1) translate(-219.000000, -86.250000) " points="0 0.5 47 48 118.5 35 245 61.5 310.5 140.5 375 140.5 438 172 0 172"></polygon>
                    <polygon id="Path-13" fill-opacity="0.2" fill="url(#linearGradient-4)" style="mix-blend-mode: multiply;" points="390.5 49 371 95 426 47.75 438 0.5"></polygon>
                    <polygon id="Path-13" fill-opacity="0.15" fill="url(#linearGradient-4)" style="mix-blend-mode: screen;" points="319.5 35 193 61.5 204.5 118 304.5 148.5 371.5 95"></polygon>
                    <polygon id="Path-13" fill-opacity="0.8" fill="#CCEDAB" style="mix-blend-mode: overlay;" points="63 140.5 0 172 57 159.5 81.5 147 127.5 140.5"></polygon>
                    <polygon id="Path-14" fill-opacity="0.6" fill="#29641A" style="mix-blend-mode: screen;" points="417 108.5 437 100 437 127.5 417 125.5 386 104"></polygon>
                    <polygon id="Path-14" fill-opacity="0.4" fill="#29641A" style="mix-blend-mode: screen;" points="425 48 437 0.5 437 63"></polygon>
                    <polygon id="Path-14" fill-opacity="0.6" fill="#29641A" style="mix-blend-mode: screen;" points="348 69 353 56.5 359 82 350.5 82 330 74.25"></polygon>
                </g>
                <g id="Tree" transform="translate(952.000000, 127.000000)">
                    <polygon id="Path-5" fill="url(#radialGradient-11)" points="0 346 111.702703 0 208 346"></polygon>
                    <polygon id="Path-7" fill="#8B572A" points="103.5 346 105.680861 252.330365 69 225.908636 105.929246 241.662042 107.453505 176.193979 84.5 156.765123 107.638035 168.268283 110 66.8201058 110.662908 66.8201058 112.001866 124.532809 129 112.055784 112.001866 130.860589 113.450804 192.63657 148 176.193979 113.450804 200.161227 116.5 346"></polygon>
                    <g id="Layers" transform="translate(19.000000, 55.835979)" fill="url(#linearGradient-12)">
                        <polygon id="Path-10" fill-opacity="0.35" style="mix-blend-mode: multiply;" points="29 142.793651 40 107.55291 90 141.420635 90 168.42328"></polygon>
                        <polygon id="Path-10" fill-opacity="0.2" style="mix-blend-mode: multiply;" points="0 231.124339 16 181.695767 88.5 219.453704 88.5 257.21164"></polygon>
                        <polygon id="Path-10" fill-opacity="0.5" style="mix-blend-mode: multiply;" points="60.5 43.9365079 66.5 25.1719577 90.5 42.5634921 90.5 55.3783069"></polygon>
                        <polygon id="Path-10" fill-opacity="0.5" style="mix-blend-mode: multiply;" points="71.5 9.61111111 74.5 0 91.5 12.8148148 91.5 19.2222222"></polygon>
                        <polygon id="Path-10" fill-opacity="0.5" style="mix-blend-mode: multiply;" transform="translate(114.250000, 100.916667) scale(-1, 1) translate(-114.250000, -100.916667) " points="92.5 100.230159 97.5 81.9232804 136 108.010582 136 119.910053"></polygon>
                    </g>
                </g>
            </g>
        </g>
    </g>
</svg>