<?xml version="1.0" encoding="UTF-8"?>
<svg width="300px" height="351px" viewBox="0 0 300 351" version="1.1" xmlns="http://www.w3.org/2000/svg" xmlns:xlink="http://www.w3.org/1999/xlink">
    <!-- Generator: Sketch 51.3 (57544) - http://www.bohemiancoding.com/sketch -->
    <title>partner</title>
    <desc>Created with Sketch.</desc>
    <defs>
        <linearGradient x1="36.6901042%" y1="1.87369792%" x2="82.2239583%" y2="108.065104%" id="linearGradient-1">
            <stop stop-color="#FCFFF3" offset="0%"></stop>
            <stop stop-color="#D5F09F" offset="100%"></stop>
        </linearGradient>
        <linearGradient x1="15.3958333%" y1="14.0091146%" x2="84.5611979%" y2="76.5885417%" id="linearGradient-2">
            <stop stop-color="#EAF5CB" offset="0%"></stop>
            <stop stop-color="#9ABE51" offset="100%"></stop>
        </linearGradient>
        <linearGradient x1="36.6901042%" y1="1.87369792%" x2="82.2239583%" y2="108.065104%" id="linearGradient-3">
            <stop stop-color="#C5DF7E" offset="0%"></stop>
            <stop stop-color="#F3FFDA" offset="100%"></stop>
        </linearGradient>
        <radialGradient cx="50%" cy="13.109028%" fx="50%" fy="13.109028%" r="99.6945656%" gradientTransform="translate(0.500000,0.131090),scale(1.000000,0.959050),rotate(94.706279),translate(-0.500000,-0.131090)" id="radialGradient-4">
            <stop stop-color="#FFFFFF" offset="0%"></stop>
            <stop stop-color="#F0E1D6" offset="90.0334176%"></stop>
            <stop stop-color="#FCFCFC" offset="100%"></stop>
        </radialGradient>
        <linearGradient x1="36.6901042%" y1="1.87369792%" x2="82.2239583%" y2="108.065104%" id="linearGradient-5">
            <stop stop-color="#A9CA4D" offset="0%"></stop>
            <stop stop-color="#C1D893" offset="100%"></stop>
        </linearGradient>
        <path d="M195.417411,219.348063 C198.441444,216.048604 188.781328,190.367922 187.299508,187.691493 C184.178069,182.047586 178.221434,178.234406 171.378196,178.234406 C161.289787,178.234406 153.061742,186.521635 153.000344,196.744451 C152.960262,203.418082 156.42435,209.266823 161.656052,212.523575 C164.440166,214.255588 192.058833,223.009286 195.417411,219.348063 Z" id="path-6"></path>
        <filter x="-16.3%" y="-11.9%" width="132.6%" height="133.3%" filterUnits="objectBoundingBox" id="filter-7">
            <feOffset dx="0" dy="2" in="SourceAlpha" result="shadowOffsetOuter1"></feOffset>
            <feGaussianBlur stdDeviation="2" in="shadowOffsetOuter1" result="shadowBlurOuter1"></feGaussianBlur>
            <feColorMatrix values="0 0 0 0 0   0 0 0 0 0   0 0 0 0 0  0 0 0 0.0606600996 0" type="matrix" in="shadowBlurOuter1"></feColorMatrix>
        </filter>
        <path d="M204.417411,213.348063 C207.441444,210.048604 197.781328,184.367922 196.299508,181.691493 C193.178069,176.047586 187.221434,172.234406 180.378196,172.234406 C170.289787,172.234406 162.061742,180.521635 162.000344,190.744451 C161.960262,197.418082 165.42435,203.266823 170.656052,206.523575 C173.440166,208.255588 201.058833,217.009286 204.417411,213.348063 Z" id="path-8"></path>
        <filter x="-16.3%" y="-11.9%" width="132.6%" height="133.3%" filterUnits="objectBoundingBox" id="filter-9">
            <feOffset dx="0" dy="2" in="SourceAlpha" result="shadowOffsetOuter1"></feOffset>
            <feGaussianBlur stdDeviation="2" in="shadowOffsetOuter1" result="shadowBlurOuter1"></feGaussianBlur>
            <feColorMatrix values="0 0 0 0 0   0 0 0 0 0   0 0 0 0 0  0 0 0 0.0606600996 0" type="matrix" in="shadowBlurOuter1"></feColorMatrix>
        </filter>
        <linearGradient x1="51.9335492%" y1="37.4235738%" x2="82.2239583%" y2="108.065104%" id="linearGradient-10">
            <stop stop-color="#C5DF7E" offset="0%"></stop>
            <stop stop-color="#F3FFDA" offset="100%"></stop>
        </linearGradient>
        <path d="M216.417411,210.348063 C219.441444,207.048604 209.781328,181.367922 208.299508,178.691493 C205.178069,173.047586 199.221434,169.234406 192.378196,169.234406 C182.289787,169.234406 174.061742,177.521635 174.000344,187.744451 C173.960262,194.418082 177.42435,200.266823 182.656052,203.523575 C185.440166,205.255588 213.058833,214.009286 216.417411,210.348063 Z" id="path-11"></path>
        <filter x="-16.3%" y="-11.9%" width="132.6%" height="133.3%" filterUnits="objectBoundingBox" id="filter-12">
            <feOffset dx="0" dy="2" in="SourceAlpha" result="shadowOffsetOuter1"></feOffset>
            <feGaussianBlur stdDeviation="2" in="shadowOffsetOuter1" result="shadowBlurOuter1"></feGaussianBlur>
            <feColorMatrix values="0 0 0 0 0   0 0 0 0 0   0 0 0 0 0  0 0 0 0.0606600996 0" type="matrix" in="shadowBlurOuter1"></feColorMatrix>
        </filter>
        <linearGradient x1="50%" y1="0%" x2="34.908541%" y2="122.299569%" id="linearGradient-13">
            <stop stop-color="#8B572A" offset="0%"></stop>
            <stop stop-color="#C69C78" offset="100%"></stop>
        </linearGradient>
        <path d="M1.91916783,103.040727 C28.7855046,50.9363158 32.2047148,42.7439079 58.3129122,1.07627963 C60.401587,-2.25716087 60.304884,8.64251343 58.3129122,13.038589 C35.5258145,63.3273565 34.4612688,66.0438369 8.75477321,110.445966 C6.26439663,114.747525 4.11204374,112.821581 1.91916783,110.445966 C0.694241049,109.118962 0.588632414,105.621159 1.91916783,103.040727 Z" id="path-14"></path>
    </defs>
    <g id="partner" stroke="none" stroke-width="1" fill="none" fill-rule="evenodd">
        <g id="deer-bg" transform="translate(-1.000000, 0.000000)">
            <circle id="background" fill="url(#linearGradient-1)" cx="151" cy="201" r="150"></circle>
            <circle id="background" fill-opacity="0.4" fill="url(#linearGradient-2)" cx="151" cy="201" r="150"></circle>
            <path d="M142.002076,307.753085 C167.539775,308.76305 197.162462,326.807712 219.5,319 C263.094956,303.762114 291.932328,251.402272 299.5,211.5 C305,182.5 294.5,158 285,144 C276.868917,132.017352 265.5,132.534744 265.5,172.5 C265.5,184 263,183.5 260.124399,186.744621 C257.248798,189.989242 252,192.868179 252,206 C252,231.292952 239.051228,210.353134 234.5,215.5 C224.225487,227.11918 229.5,253.5 228.018832,255.746915 C226.537664,257.993831 212.670637,273.99217 192.018832,268.746915 C175.988448,264.675434 155.868477,240.378703 136.5,232.5 C107,220.5 101,192.5 81,188.5 C53.1142858,182.922857 50,191.5 40.5,185 C29.4584723,177.445271 32.3399948,175.937695 25.5,166.5 C20.3340296,159.372092 4.60009925,169.719424 3,179 C2.11431049,184.136999 0.592466412,189.878213 1,196 C2.89312359,224.437656 18.6341692,260.656836 32,278 C55.5912333,308.611388 89.5893959,305.680267 142.002076,307.753085 Z" id="background" fill="url(#linearGradient-3)"></path>
            <g id="Deer" transform="translate(37.000000, 0.000000)"></g>
        </g>
        <path d="M27.5064162,90.3445314 C15.7128988,90.7544002 19.277361,106.31389 27.5064162,121.384759 C33.2097726,131.830008 39.8747107,136.635653 54.8353775,136.115714 C57.9265785,136.008283 61.0431167,135.676864 64.0121674,135.149092 C72.921809,133.565333 80.5033213,130.213405 82.0865241,125.840069 C82.5896941,124.450145 82.486986,122.957051 81.6284768,121.384759 C72.1560057,104.036671 45.989101,89.7021891 27.5064162,90.3445314 Z" id="Path-24" fill="#EDDED1"></path>
        <path d="M33.8404425,95.6055869 C25.94751,94.6369337 30.495123,115.264085 37.151932,125.067497 C40.3671039,129.802447 45.7617628,133.485186 55.9071015,133.485186 C69.9605252,133.485186 81.4166772,129.036887 77.3415809,121.384759 C71.0597552,109.588882 46.7011301,97.1839035 33.8404425,95.6055869 Z" id="Path-24" fill="#E3D2C3"></path>
        <path d="M160.56082,293.964631 C142.078135,294.606973 126.640884,278.164211 122.353988,271.850945 C119.722937,267.976224 126.254385,258.178367 141.56992,257.646095 C156.530587,257.126156 154.857464,252.479154 160.56082,262.924404 C168.789875,277.995273 172.354337,293.554762 160.56082,293.964631 Z" id="Path-24" fill="#EDDED1"></path>
        <path d="M145.396053,279.345826 C142.324267,278.968844 148.027826,290.557698 143.503317,287.782808 C134.519722,282.273151 125.352056,273.552813 126.640884,267.6421 C127.867666,262.015937 140.397479,270.284096 140.397479,276.862674 C140.397479,279.377052 147.454373,270.284096 150.754673,270.284096 C157.989301,270.284096 156.281238,266.907609 158.573973,270.284096 C163.320935,277.274896 151.024493,280.036572 145.396053,279.345826 Z" id="Path-24" fill="#E3D2C3"></path>
        <path d="M26.4346923,89.8184259 C49.6625878,99.6522259 64.1308615,107.543809 69.8395131,113.493175 C122.676714,168.558345 136.717811,225.119592 143.788467,279.145842 C149.535995,323.062186 262.117489,266.227861 248.281554,224.430865 C218.710943,135.100959 194.695356,106.583223 152.768857,64.6163685 C149.004917,60.8488054 143.174043,62.8262027 138.965709,64.494779 C95.7524464,81.6285494 58.2421074,90.069765 26.4346923,89.8184259 Z" id="Path-4" fill="url(#radialGradient-4)"></path>
        <path d="M150,351 C232.842712,351 300,283.842712 300,201 C300,195.256958 297.300827,162.022671 290,166 C285.20048,168.614673 277.707423,190.850674 274,198.5 C270.653638,205.404369 270.060616,214.359434 258.5,224.5 C246.939384,234.640566 244.5,239.401271 236,245 C227.5,250.598729 224,273.876984 214,284 C204,294.123016 169.703942,316.560111 150,309 C137.289101,304.123016 128.5,291.5 122,281 C117.594406,273.883272 113.890035,262.900101 112,257.5 C108.5,247.5 107.32991,244.909842 100.5,239.5 C90.3295426,231.444173 83,239.5 73.5,231.5 C65.0460519,224.380886 50.5,228 45.5,219 C40.5,210 38.6419822,194.224424 30.5,194.224424 C26.0600903,194.224424 18.8707382,198.414473 13.9962044,194.224424 C8.5,189.5 0,179.847724 0,189.5 C0,272.342712 67.1572875,351 150,351 Z" id="background" fill="url(#linearGradient-5)"></path>
        <g id="Mask" transform="translate(174.500000, 199.234406) rotate(-4.000000) translate(-174.500000, -199.234406) ">
            <use fill="black" fill-opacity="1" filter="url(#filter-7)" xlink:href="#path-6"></use>
            <use fill="#B7D275" fill-rule="evenodd" xlink:href="#path-6"></use>
        </g>
        <circle id="Oval-4" fill="#F0E8E2" transform="translate(170.000000, 198.000000) rotate(-4.000000) translate(-170.000000, -198.000000) " cx="170" cy="198" r="7"></circle>
        <g id="Mask" transform="translate(183.500000, 193.234406) rotate(16.000000) translate(-183.500000, -193.234406) ">
            <use fill="black" fill-opacity="1" filter="url(#filter-9)" xlink:href="#path-8"></use>
            <use fill="#A04C38" fill-rule="evenodd" xlink:href="#path-8"></use>
        </g>
        <path d="M150,351 C232.842712,351 300,283.842712 300,201 C300,193.062513 297.347025,180.572281 287.5,182 C283.692769,182.55201 280.413534,193.917853 273.5,201 C269.175119,205.43036 264,202.5 258.5,209 C252.34883,216.269565 254.719912,232.008004 245,243 C234.725487,254.61918 231,282.5 221.5,293.2003 C212,303.900599 204.5,301.5 178.5,296.5 C161.82813,293.293871 154.969615,313 128.5,296.5 C121.439984,292.099095 112.499591,294.542376 106,290.5 C96.7922946,284.773331 80.4125518,272.427018 77,259 C73.502547,245.23893 53.6244744,243 48.5,243 C33.5,243 36.9970049,234.725775 18.5,221 C0.00299514269,207.274225 -1.42108547e-14,179.31025 -1.42108547e-14,201 C-1.42108547e-14,283.842712 67.1572875,351 150,351 Z" id="background" fill="url(#linearGradient-10)"></path>
        <circle id="Oval-4" fill="#F0E8E2" transform="translate(181.000000, 191.000000) rotate(16.000000) translate(-181.000000, -191.000000) " cx="181" cy="191" r="7"></circle>
        <g id="Mask" transform="translate(195.500000, 190.234406) scale(-1, 1) rotate(51.000000) translate(-195.500000, -190.234406) ">
            <use fill="black" fill-opacity="1" filter="url(#filter-12)" xlink:href="#path-11"></use>
            <use fill="#C7705B" fill-rule="evenodd" xlink:href="#path-11"></use>
        </g>
        <circle id="Oval-4" fill="#F0E8E2" transform="translate(196.000000, 186.000000) rotate(35.000000) translate(-196.000000, -186.000000) " cx="196" cy="186" r="7"></circle>
        <path d="M147.869805,130.114062 C150.927795,128.961476 138.90569,136.923735 132.660235,136.923735 C127.613737,136.923735 127.490852,129.040066 125.285898,130.114062 C121.499203,131.958497 125.426289,137.170052 120.676938,142.760597 C119.43464,144.222928 111.350444,145.127698 113.302601,144.219813" id="Path-13" stroke="#A7A7A7"></path>
        <path d="M166,103.5 C157,111.5 141.5,135.936325 149,130 C152.040658,127.593289 153.337738,127 161,127 C163,127 167.537422,117.297506 169.5,106 C169.969816,103.295521 167.537422,102.133403 166,103.5 Z" id="Path-8" fill="#D8D8D8"></path>
        <path d="M167.418794,103.270752 C162.006404,108.081765 152.685066,122.7772 157.195391,119.207233 C159.023972,117.759893 159.804005,117.403103 164.411911,117.403103 C165.614664,117.403103 168.343364,111.56825 169.523612,104.774194 C169.806149,103.147783 168.343364,102.448913 167.418794,103.270752 Z" id="Path-8" fill="#E0E0E0"></path>
        <path d="M162,109.5 C157.385943,113.601384 152.5,122.5 153.5,121.5 C154.925734,120.074266 158.471134,113.42348 163.5,110 C164.549436,109.28558 162.788195,108.799382 162,109.5 Z" id="Path-8" fill="#B2AFAF"></path>
        <g id="Path-9" transform="translate(163.000000, -1.000000)">
            <mask id="mask-15" fill="white">
                <use xlink:href="#path-14"></use>
            </mask>
            <use id="Mask" fill="url(#linearGradient-13)" xlink:href="#path-14"></use>
            <path d="M22.5,122 C6.41241565,114.293373 -10.8070861,89.5 -5,89.5 C0.807086071,89.5 44.2600309,129.062597 42,122 C39.7399691,114.937403 -14.7714973,67.6633881 -13,64.5 C-12.0690767,62.837637 13.7479639,79.4733114 29.25,92 C43.247512,103.310932 47.005995,110.631733 49,109.5 C51.9328925,107.835385 22.6763351,86.3707291 9,70.5 C3.08047432,63.6306752 1.37851104,57.5826459 2,57 C4.05736266,55.0712225 57,107.598563 57,102 C57,96.4014368 6.16708674,39.337324 5.5,33 C4.83291326,26.662676 52.6211597,76.6337281 54,73.5 C55.3788403,70.3662719 6.08061227,19.2350146 11,20.5 C15.9193877,21.7649854 67.3480161,79.2512828 71.5,78 C75.6519839,76.7487172 29.25,20.4406401 29.25,15 C29.25,9.55935993 70.4118516,57.5844888 71.5,54 C72.5881484,50.4155112 34.5755195,5.51718206 33.5,1 C32.4244805,-3.51718206 64.4061789,35.8328168 66.5,33 C68.5938211,30.1671832 37.6940053,-9.24987252 42,-10.5 C46.3059947,-11.7501275 71.257757,-12.7031238 82,28.5 C92.742243,69.7031238 91.8983817,108.4454 78.5,129.5 C65.1016183,150.5546 38.5875844,129.706627 22.5,122 Z" fill-opacity="0.4" fill="#C1936B" style="mix-blend-mode: multiply;" mask="url(#mask-15)"></path>
        </g>
        <path d="M84,108.672475 C84,108.672475 94.4080227,118.916618 102.311735,118.916618 C109.390352,118.916618 105.530545,108.672475 113.964658,108.672475 C125.229533,108.672475 133.262733,116.689559 138,113.5 C147.13526,107.349312 138.465693,102.686019 143.5,98 C146.234308,95.4548599 153.202013,104.454299 157.246941,104.454299 C160.970628,104.454299 168.079593,89.368145 157.246941,89.9919804" id="Path-6" stroke="#A7A7A7"></path>
        <path d="M162.876146,254.541846 L162.123854,239.958154" id="Path-11" stroke="#A7A7A7"></path>
        <path d="M156.821866,242.659652 L168.178134,251.840348" id="Path-11" stroke="#A7A7A7"></path>
        <path d="M177,251.5 C198,248 217.5,238 225.5,224.5" id="Path-12" stroke="#A7A7A7"></path>
        <path d="M70.5,98.5 C75.5,95.5 77.9158778,90.5 87.5,90.5 C97.9158778,90.5 104.159203,98.5 110.5,98.5 C115.659203,98.5 107.785111,91.7775948 110.5,90.5 C112.035111,89.7775948 117.902903,95.661632 119,94.5 C122.152903,91.161632 113.022597,84.8403133 119,81.5 C121.522597,80.0903133 130.467532,85.8196249 136,85 C143.967532,83.8196249 138.595987,80.4226366 146,77.5 C148.095987,76.6726366 157.643947,76.7645974 155,77.5" id="Path-25" stroke="#A7A7A7"></path>
    </g>
</svg>